<?xml version="1.0" standalone="no"?>
<!DOCTYPE svg PUBLIC "-//W3C//DTD SVG 20010904//EN"
 "http://www.w3.org/TR/2001/REC-SVG-20010904/DTD/svg10.dtd">
<svg version="1.0" xmlns="http://www.w3.org/2000/svg"
 width="600.000000pt" height="600.000000pt" viewBox="0 0 600.000000 600.000000"
 preserveAspectRatio="xMidYMid meet">
<metadata>
Created by potrace 1.14, written by Peter Selinger 2001-2017
</metadata>
<g transform="translate(0.000000,600.000000) scale(0.100000,-0.100000)"
fill="#000000" stroke="none">
<path d="M0 5609 l0 -391 50 -51 c28 -28 60 -65 72 -83 12 -17 36 -41 54 -53
30 -21 75 -67 165 -167 19 -23 50 -51 67 -64 22 -16 32 -32 32 -50 0 -38 32
-65 59 -50 20 10 21 19 21 161 0 83 4 159 10 169 5 10 13 99 16 197 3 98 10
187 15 198 4 11 10 97 13 190 2 94 9 197 16 230 6 33 14 81 17 108 l5 47 -306
0 -306 0 0 -391z"/>
<path d="M708 5973 c2 -16 8 -32 12 -38 5 -5 12 -80 16 -165 6 -135 10 -160
29 -190 22 -35 26 -65 41 -290 3 -47 9 -94 15 -105 5 -11 10 -78 11 -149 3
-110 6 -130 20 -140 13 -8 23 -8 35 0 15 9 19 31 23 126 5 108 7 116 32 139
27 25 138 243 138 270 0 8 4 19 9 25 5 5 21 38 36 74 47 118 53 131 98 215 25
48 95 198 106 228 l11 27 -319 0 -318 0 5 -27z"/>
<path d="M2163 5983 c25 -80 69 -201 77 -215 6 -10 10 -23 10 -30 0 -7 6 -25
14 -39 7 -14 17 -48 21 -75 4 -27 20 -68 36 -92 19 -28 29 -56 29 -79 0 -22 8
-45 18 -57 19 -21 52 -125 52 -162 0 -18 -165 -186 -267 -272 -35 -30 -119
-158 -129 -197 -3 -13 -23 -44 -43 -67 -25 -29 -42 -62 -51 -98 -12 -53 -15
-56 -69 -82 -31 -14 -78 -34 -106 -44 -27 -10 -55 -21 -61 -26 -6 -4 -29 -14
-51 -22 -22 -8 -62 -30 -88 -50 -25 -20 -52 -36 -60 -36 -7 0 -18 -6 -24 -14
-7 -8 -28 -17 -47 -21 -19 -3 -44 -15 -55 -26 -21 -21 -25 -69 -9 -100 8 -15
6 -25 -12 -49 -27 -37 -41 -37 -111 0 -78 41 -170 43 -180 2 -5 -23 40 -145
76 -207 16 -27 31 -65 35 -84 5 -31 3 -34 -14 -27 -30 12 -133 26 -194 26
-106 0 -175 -57 -209 -171 -7 -24 -17 -52 -22 -61 -13 -26 -11 -231 4 -285 9
-37 26 -61 76 -110 36 -35 76 -66 90 -70 42 -10 43 -13 11 -56 -16 -22 -30
-49 -30 -58 0 -10 -10 -30 -23 -46 -12 -15 -38 -50 -56 -78 -43 -63 -165 -214
-225 -279 l-45 -48 -43 34 c-24 18 -63 44 -88 58 -24 13 -99 61 -167 107 -67
46 -125 83 -128 83 -4 0 -13 6 -20 13 -29 25 -42 35 -63 46 l-22 12 0 -396 c0
-217 3 -395 8 -395 4 0 34 14 67 31 60 31 153 69 168 69 4 0 -1 -10 -13 -22
-13 -15 -20 -35 -20 -63 0 -81 70 -108 311 -122 84 -4 134 4 264 42 28 8 84
24 125 35 79 23 198 68 266 102 l41 20 49 -26 c27 -14 67 -39 89 -55 22 -17
66 -44 97 -60 31 -17 59 -35 63 -40 3 -6 27 -13 53 -17 26 -4 59 -13 74 -20
15 -8 37 -14 50 -14 47 0 53 -13 35 -72 -8 -29 -18 -85 -21 -125 -8 -94 -10
-98 -59 -114 -23 -7 -69 -25 -102 -40 -33 -15 -84 -32 -114 -38 -30 -6 -74
-20 -99 -31 -24 -11 -60 -20 -78 -20 -18 0 -43 -4 -56 -9 -13 -5 -50 -19 -83
-31 -136 -50 -141 -54 -202 -150 -41 -63 -62 -88 -73 -84 -8 3 -33 8 -55 11
-22 3 -44 9 -50 13 -5 4 -25 11 -42 15 -18 3 -35 11 -39 16 -9 15 -84 46 -128
54 -21 3 -46 10 -55 15 -76 40 -114 53 -166 57 -34 3 -79 15 -105 29 -61 31
-150 71 -177 79 l-23 6 0 -790 0 -791 47 0 c50 0 39 -8 215 157 26 25 73 77
105 116 32 39 72 86 88 103 17 18 66 74 110 125 85 99 175 192 180 187 5 -5
-22 -176 -35 -228 -7 -25 -15 -79 -20 -121 -9 -86 -13 -106 -40 -169 -21 -51
-50 -143 -50 -159 0 -8 563 -11 1889 -11 l1889 0 6 23 c10 37 7 706 -4 792 -5
44 -14 125 -19 180 -5 55 -16 116 -24 135 -8 19 -20 53 -27 75 -7 22 -25 68
-41 101 -50 107 -242 287 -389 364 -25 13 -162 50 -359 96 -57 14 -112 29
-122 34 -10 6 -36 10 -58 10 l-41 0 0 69 c0 63 2 69 23 75 12 3 185 6 384 6
l362 0 15 -28 c8 -15 34 -49 58 -75 37 -42 55 -52 133 -78 114 -38 190 -49
338 -49 113 0 152 8 169 34 17 24 8 107 -16 154 -13 26 -29 68 -36 92 -6 25
-17 54 -25 65 -17 28 -27 95 -28 195 -1 93 11 137 69 256 18 39 34 78 34 86 0
8 5 19 12 26 7 7 16 40 20 75 9 75 25 208 41 337 l12 95 100 6 c129 7 165 24
208 99 30 52 32 60 32 160 0 176 -32 265 -127 355 -104 98 -122 105 -276 105
l-129 0 -40 88 c-58 125 -113 188 -240 272 -59 38 -115 70 -126 70 -17 0 -100
30 -139 51 -10 5 -26 9 -36 9 -20 0 -117 49 -253 126 -46 26 -113 60 -149 75
l-65 28 -6 88 c-6 92 -30 207 -52 252 -8 14 -21 40 -30 58 -15 30 -14 32 3 38
16 5 50 36 125 115 48 50 153 139 210 178 38 26 97 73 130 104 52 50 157 128
172 128 2 0 30 20 61 44 32 24 93 63 137 86 44 23 96 55 116 71 45 36 242 139
265 139 10 0 31 11 48 23 22 17 49 26 96 29 39 4 87 16 120 32 l55 26 -817 0
-818 0 0 -89 c0 -50 -4 -92 -9 -95 -5 -3 -12 -34 -16 -68 -4 -35 -12 -69 -18
-76 -6 -7 -16 -90 -23 -185 -7 -95 -16 -188 -21 -208 l-8 -36 -67 31 c-131 61
-118 59 -291 54 -137 -5 -170 -9 -210 -27 -39 -17 -68 -21 -144 -21 -91 0 -95
1 -80 18 15 17 137 220 137 228 0 17 43 95 69 124 17 19 42 58 56 87 15 28 35
59 45 68 16 14 100 175 100 190 0 3 -181 5 -401 5 -378 0 -401 -1 -396 -17z
m966 -775 c120 -38 191 -89 249 -176 67 -102 132 -282 132 -369 0 -35 0 -35
-37 -29 -21 4 -64 9 -95 12 l-57 6 -10 49 c-6 28 -20 67 -31 89 -11 22 -20 52
-20 68 0 15 -16 55 -36 88 -20 32 -48 77 -61 100 -13 23 -49 60 -81 82 -31 23
-70 53 -87 67 l-30 25 64 0 c36 0 81 -5 100 -12z m-414 -38 c22 -4 73 -15 113
-23 58 -12 83 -23 120 -54 26 -21 59 -46 73 -55 31 -20 129 -174 129 -203 0
-22 27 -104 39 -120 5 -5 11 -23 15 -39 l7 -29 -53 6 c-29 4 -92 7 -140 7 -79
0 -88 2 -88 19 0 22 -75 121 -115 153 -37 29 -105 40 -260 41 l-130 1 -109
-53 c-60 -30 -130 -72 -154 -95 -38 -35 -44 -38 -37 -17 15 49 115 191 134
191 6 0 65 54 131 121 155 155 202 176 325 149z m-23 -413 c45 -12 90 -44 108
-77 7 -13 -6 -15 -101 -12 -108 3 -109 3 -109 28 0 29 27 74 44 74 6 -1 32 -6
58 -13z m-212 -46 c0 -39 -4 -51 -17 -55 -25 -7 -138 -26 -198 -33 l-50 -6 34
29 c34 29 195 112 219 113 8 1 12 -15 12 -48z m515 -161 c204 -6 395 -15 425
-21 85 -17 234 -76 350 -140 204 -111 236 -126 295 -144 33 -10 69 -24 80 -31
11 -6 38 -15 59 -19 22 -3 71 -28 109 -53 38 -26 79 -53 91 -61 11 -7 37 -34
56 -59 39 -51 112 -201 104 -214 -12 -18 -152 -78 -294 -125 l-55 -18 -29 56
c-40 79 -159 200 -231 237 -22 11 -74 41 -115 67 -41 26 -88 55 -104 64 -15 9
-62 40 -104 70 -88 62 -159 96 -253 121 -36 10 -83 28 -105 39 -21 12 -44 21
-51 21 -7 0 -41 10 -75 21 -57 20 -74 21 -232 15 -94 -3 -193 -11 -221 -17
-27 -6 -104 -15 -170 -19 -66 -5 -156 -16 -200 -24 -44 -9 -109 -20 -145 -26
-39 -7 -99 -28 -148 -53 -82 -41 -95 -51 -157 -117 -16 -18 -69 -62 -117 -98
-49 -36 -88 -68 -88 -72 0 -4 -17 -27 -38 -51 -22 -24 -44 -60 -51 -79 -6 -19
-20 -50 -29 -68 l-18 -32 -22 20 c-12 12 -22 29 -22 39 0 17 -58 104 -99 149
l-21 23 47 67 c93 134 164 203 271 263 24 13 50 35 57 49 10 19 29 30 80 45
37 10 77 26 89 36 25 19 107 49 137 49 12 0 33 6 47 14 15 8 68 19 117 26 50
6 113 15 140 20 28 5 73 12 100 16 28 3 57 10 65 15 20 11 40 11 475 -1z m130
-296 c28 -9 80 -30 116 -45 36 -16 74 -29 85 -29 43 -1 166 -61 269 -131 61
-42 160 -104 220 -139 109 -64 146 -92 212 -160 33 -34 83 -113 83 -132 0 -5
-21 -18 -46 -28 -25 -11 -56 -28 -68 -38 -21 -16 -90 -17 -1092 -16 -806 0
-1074 3 -1091 12 -12 7 -43 12 -69 12 -40 0 -53 5 -81 32 -18 18 -33 39 -33
49 0 26 57 145 93 192 17 24 61 66 97 93 35 27 92 76 125 108 87 86 155 126
245 143 41 7 109 21 150 29 41 9 127 18 190 20 63 2 131 9 150 15 101 30 369
38 445 13z m-1885 -220 l39 -16 -22 -39 c-12 -21 -24 -39 -27 -38 -7 0 -47 65
-55 88 -8 26 9 27 65 5z m146 -310 c4 -15 32 -51 62 -80 30 -28 52 -56 48 -62
-3 -6 -11 -34 -16 -62 -5 -28 -28 -96 -50 -150 -25 -63 -42 -123 -46 -167 -4
-37 -11 -79 -16 -93 -6 -14 -14 -79 -19 -145 -5 -66 -11 -156 -15 -200 -8 -99
-41 -205 -102 -332 -9 -17 -38 -52 -66 -78 -63 -58 -144 -93 -366 -156 -41
-12 -97 -28 -125 -37 -71 -23 -315 -16 -315 10 0 5 38 54 85 109 47 55 85 105
85 111 0 9 13 27 69 93 5 6 17 17 27 26 49 41 308 362 341 422 6 12 17 37 24
55 7 19 17 39 23 45 56 60 106 158 106 210 0 18 12 59 25 92 14 33 25 66 25
73 0 27 43 168 71 237 16 39 32 86 36 105 3 19 12 50 20 68 l14 33 34 -50 c19
-27 37 -62 41 -77z m3534 21 c17 -9 30 -19 30 -24 0 -5 20 -24 44 -42 65 -49
99 -137 100 -259 1 -128 -32 -160 -165 -160 l-69 0 0 38 c-1 56 -18 119 -55
202 -18 41 -37 98 -41 125 -3 28 -18 69 -31 93 l-25 42 92 0 c62 0 100 -5 120
-15z m-3818 -36 l37 -10 -19 -52 c-10 -28 -28 -90 -40 -137 -12 -47 -28 -99
-35 -117 -8 -17 -19 -60 -26 -95 -7 -34 -14 -64 -15 -66 -6 -10 -99 46 -128
78 -40 45 -49 81 -44 176 8 120 45 215 91 234 24 10 119 4 179 -11z m3531 -36
c8 -16 20 -57 26 -92 7 -35 29 -98 48 -140 33 -70 37 -85 41 -186 2 -60 -1
-150 -8 -200 -6 -49 -16 -124 -20 -165 -5 -41 -12 -95 -15 -120 -7 -49 -47
-164 -76 -220 -58 -111 -64 -139 -63 -275 1 -141 12 -219 35 -256 9 -13 19
-37 23 -54 4 -16 13 -43 21 -60 32 -73 39 -69 -90 -62 -121 7 -272 43 -308 75
-26 23 -103 135 -131 190 -13 26 -27 65 -30 87 -4 21 -16 56 -27 77 -23 45
-24 89 -3 165 8 32 22 87 31 123 8 36 22 85 30 110 8 25 18 69 23 99 5 29 13
65 18 80 10 25 22 69 57 201 10 36 22 79 27 95 17 53 22 239 8 321 -16 91 -16
90 93 124 80 24 102 33 197 78 36 17 68 31 72 31 4 1 14 -11 21 -26z m-3010
-241 c17 -156 62 -278 129 -347 23 -25 76 -61 126 -86 l87 -44 135 0 135 0 75
37 c41 20 87 48 102 61 15 14 43 38 62 52 20 15 38 37 42 48 4 12 22 54 41 92
27 53 36 84 37 127 l1 58 233 0 232 0 0 -32 c0 -18 22 -98 49 -177 52 -153 49
-148 150 -219 139 -97 139 -97 231 -97 98 0 142 18 204 82 53 54 157 237 221
391 16 36 22 42 49 42 17 0 49 11 71 25 94 57 100 56 111 -34 13 -108 0 -200
-62 -416 -8 -27 -24 -88 -35 -135 -11 -47 -25 -98 -31 -115 -6 -16 -16 -57
-23 -90 -7 -33 -20 -80 -29 -105 -8 -25 -16 -54 -16 -65 0 -19 -48 -55 -74
-55 -7 0 -34 -14 -62 -32 -79 -51 -304 -129 -474 -164 -36 -7 -126 -34 -200
-59 -74 -25 -162 -48 -195 -51 -33 -3 -109 -20 -170 -36 l-110 -30 -317 6
c-272 5 -321 9 -346 23 -27 15 -32 15 -52 2 -20 -13 -34 -14 -104 -2 -45 7
-97 17 -116 22 -19 6 -55 15 -80 22 -51 13 -155 63 -185 89 -11 10 -35 25 -52
34 -18 9 -33 21 -33 27 0 5 -16 17 -35 25 -38 15 -43 29 -21 59 15 22 50 110
89 225 14 41 28 111 31 155 4 44 10 135 15 202 5 67 12 126 15 131 3 6 11 45
16 88 6 45 27 122 50 179 21 55 42 113 45 128 11 40 32 17 38 -41z m267 -127
c9 -38 27 -87 39 -108 26 -41 22 -67 -9 -67 -25 0 -65 75 -85 165 -17 72 -14
88 18 83 16 -2 23 -17 37 -73z m1418 32 c6 -7 18 -38 26 -69 8 -31 20 -66 26
-78 15 -28 6 -50 -19 -50 -21 0 -51 45 -51 77 0 10 -7 38 -16 62 -8 24 -13 50
-10 58 7 17 30 17 44 0z m635 -1070 c10 -28 25 -79 33 -112 9 -33 22 -70 30
-82 8 -12 14 -25 14 -28 0 -3 -162 -5 -360 -5 l-360 0 0 30 c0 23 7 33 30 45
16 8 40 15 53 15 52 0 381 111 462 155 33 19 65 34 70 34 6 0 18 -23 28 -52z
m-753 -381 l0 -184 -27 -6 c-71 -14 -293 -38 -486 -52 -116 -8 -241 -19 -277
-24 -89 -13 -215 -12 -261 1 l-37 12 -6 111 c-3 61 -8 134 -12 162 l-6 51 324
-1 c311 -1 326 0 393 22 39 12 106 27 150 32 44 6 114 21 155 34 41 14 78 25
83 25 4 1 7 -82 7 -183z m-1231 68 c3 -3 8 -28 12 -57 4 -29 11 -73 15 -99 l7
-48 -30 0 c-17 0 -46 -6 -64 -14 -19 -7 -52 -16 -75 -19 l-41 -5 5 82 c2 44 8
86 12 91 4 6 13 27 20 49 l12 38 62 -7 c33 -3 63 -9 65 -11z"/>
<path d="M2260 2810 c-26 -26 -26 -74 1 -117 11 -18 27 -61 35 -94 27 -114 63
-149 154 -149 51 0 179 54 230 97 l37 32 31 -42 c25 -36 45 -49 121 -80 53
-22 107 -37 131 -37 45 0 114 31 129 58 5 9 32 34 59 56 83 65 117 184 60 205
-36 13 -56 2 -84 -48 -33 -58 -139 -161 -166 -161 -11 0 -42 11 -70 25 -27 14
-55 25 -62 25 -15 0 -46 52 -46 77 0 10 -11 41 -24 70 -40 84 -90 81 -131 -10
-29 -65 -63 -96 -141 -130 -94 -41 -107 -36 -123 49 -13 64 -66 180 -86 188
-26 9 -34 7 -55 -14z"/>
<path d="M5229 5948 c-37 -61 -107 -155 -159 -213 -20 -22 -46 -64 -58 -93
-12 -29 -35 -73 -52 -98 -16 -25 -30 -49 -30 -53 0 -5 -41 -51 -90 -102 -52
-54 -106 -122 -127 -159 -20 -36 -46 -81 -59 -101 -13 -19 -24 -47 -24 -61 0
-15 -4 -28 -8 -30 -17 -7 -50 -76 -72 -148 -12 -41 -27 -87 -32 -103 -9 -22
-7 -31 7 -47 15 -17 31 -20 105 -20 47 0 91 -5 96 -10 7 -7 106 -9 295 -5 156
3 440 7 632 10 l347 6 0 639 0 640 -369 0 -369 0 -33 -52z"/>
<path d="M1 4209 l-1 -636 81 -6 c52 -3 85 -10 90 -19 6 -9 42 -14 128 -16
117 -4 121 -3 146 22 23 24 25 31 25 125 0 103 -8 133 -69 251 -10 19 -22 51
-26 70 -4 19 -27 73 -51 120 -65 128 -161 332 -169 360 -4 14 -20 46 -36 72
-15 25 -31 63 -35 84 -4 21 -18 60 -31 86 -13 26 -30 65 -38 85 -12 33 -14
-46 -14 -598z"/>
<path d="M5950 4141 c-14 -5 -51 -22 -82 -39 -163 -89 -276 -170 -365 -262
-24 -25 -57 -59 -74 -75 -26 -27 -31 -40 -36 -104 -6 -69 -5 -74 19 -96 29
-27 108 -65 135 -65 10 0 27 -6 38 -14 11 -7 35 -17 54 -21 19 -4 55 -18 80
-32 51 -28 109 -48 191 -67 30 -7 63 -16 73 -21 16 -7 17 16 17 399 0 319 -3
406 -12 405 -7 0 -24 -4 -38 -8z"/>
<path d="M5960 2800 c-13 -11 -27 -20 -32 -20 -5 0 -43 -22 -86 -50 -42 -27
-82 -50 -88 -50 -12 0 -74 -31 -119 -60 -16 -10 -49 -28 -73 -40 -41 -21 -149
-101 -290 -214 -35 -28 -93 -85 -130 -127 -122 -139 -138 -161 -157 -223 -24
-77 -18 -97 35 -123 25 -12 59 -22 77 -23 17 0 34 -4 37 -9 3 -5 31 -12 62
-16 32 -4 64 -11 73 -16 77 -42 186 -69 336 -81 66 -5 129 -14 140 -18 11 -5
43 -11 70 -14 28 -4 68 -13 90 -21 22 -8 52 -14 68 -15 l27 0 0 570 c0 314 -4
570 -8 570 -5 0 -19 -9 -32 -20z"/>
<path d="M5965 1410 c-56 -24 -144 -40 -272 -50 -79 -6 -153 -14 -165 -19 -13
-5 -47 -12 -75 -16 -29 -4 -55 -11 -59 -16 -3 -5 -15 -9 -27 -9 -12 0 -53 -16
-90 -35 -38 -19 -79 -35 -91 -35 -27 0 -144 -36 -160 -49 -6 -5 -28 -12 -49
-16 -20 -4 -39 -11 -42 -15 -3 -5 -31 -12 -63 -15 -33 -4 -80 -20 -110 -36
-29 -16 -59 -29 -66 -29 -7 0 -23 -9 -36 -20 -13 -11 -31 -20 -41 -20 -27 0
-49 -28 -49 -64 0 -28 11 -41 78 -99 42 -37 108 -88 145 -112 37 -25 92 -65
121 -89 30 -24 79 -55 109 -70 40 -19 88 -58 169 -139 62 -63 145 -135 184
-160 68 -45 134 -103 269 -237 l61 -60 147 0 147 0 0 710 c0 391 -3 710 -7
709 -5 0 -17 -4 -28 -9z"/>
</g>
</svg>
